<?xml version="1.0" encoding="UTF-8" standalone="no"?>
<svg width="300px" height="53px" viewBox="0 0 300 53" version="1.1" xmlns="http://www.w3.org/2000/svg" xmlns:xlink="http://www.w3.org/1999/xlink">
    <!-- Generator: Sketch 3.6.1 (26313) - http://www.bohemiancoding.com/sketch -->
    <title>NewAppendLogoV2Solo</title>
    <desc>Created with Sketch.</desc>
    <defs>
        <linearGradient x1="-192.133734%" y1="50.000369%" x2="208.248496%" y2="50.000369%" id="linearGradient-1">
            <stop stop-color="#FF00A6" offset="0%"></stop>
            <stop stop-color="#00B4EC" offset="54.3%"></stop>
            <stop stop-color="#FFFA00" offset="100%"></stop>
        </linearGradient>
        <linearGradient x1="-147.054957%" y1="50.000369%" x2="273.183656%" y2="50.000369%" id="linearGradient-2">
            <stop stop-color="#FF00A6" offset="0%"></stop>
            <stop stop-color="#00B4EC" offset="54.3%"></stop>
            <stop stop-color="#FFFA00" offset="100%"></stop>
        </linearGradient>
    </defs>
    <g id="Page-1" stroke="none" stroke-width="1" fill="none" fill-rule="evenodd">
        <g id="NewAppendLogoV2Solo">
            <g id="Page-1">
                <g id="Group-4">
                    <g id="Group-3">
                        <g id="append_1">
                            <g id="Group" transform="translate(19.593882, 0.000000)" fill="#29ABE2">
                                <path d="M68.9826782,35.684879 L55.0555162,35.684879 L55.0555162,50.374502 L45.7710052,50.374502 L45.7710052,0.45544246 C53.5084932,0.45544246 61.2451902,0.384079117 68.9834692,0.384079117 C93.0382542,0.384079117 93.1094355,35.684879 68.9826782,35.684879 L68.9826782,35.684879 L68.9826782,35.684879 Z M55.0555162,27.0555273 L68.9826782,27.0555273 C80.869288,27.0555273 80.799688,9.37104938 68.9826782,9.37104938 L55.0555162,9.37104938 L55.0555162,27.0555273 L55.0555162,27.0555273 L55.0555162,27.0555273 Z" id="Shape"></path>
                                <path d="M116.525164,35.684879 L102.598793,35.684879 L102.598793,50.374502 L93.315864,50.374502 L93.315864,0.45544246 C101.050979,0.45544246 108.788467,0.384079117 116.525955,0.384079117 C140.582321,0.384079117 140.652712,35.684879 116.525164,35.684879 L116.525164,35.684879 L116.525164,35.684879 Z M102.598793,27.0555273 L116.525164,27.0555273 C128.412565,27.0555273 128.342174,9.37104938 116.525164,9.37104938 L102.598793,9.37104938 L102.598793,27.0555273 L102.598793,27.0555273 L102.598793,27.0555273 Z" id="Shape"></path>
                                <path d="M177.57563,29.0913549 L149.932478,29.0913549 L149.932478,41.1036827 L177.575629,41.1036821 L177.575629,50.3753038 L140.717568,50.3753038 L140.717568,0.456244296 L177.575629,0.456244296 L177.575629,9.58433753 L149.932478,9.58433753 L149.932478,21.0650156 L177.57563,21.0650154" id="Shape"></path>
                                <path d="M218.578858,0.384079117 L227.863368,0.384079117 L227.863368,50.374502 L222.095251,50.374502 L222.095251,50.4458653 L196.210296,16.7158609 L196.210296,50.3753038 L186.925786,50.3753038 L186.925786,0.456244296 L194.452891,0.456244296 L218.578858,31.4062857 L218.578858,0.384079117 L218.578858,0.384079117 L218.578858,0.384079117 Z" id="Shape"></path>
                                <path d="M279.698132,24.9867922 C279.909305,37.6084819 272.312599,50.374502 255.078636,50.374502 L235.736103,50.374502 L235.736103,0.45544246 L255.078636,0.45544246 C271.960643,0.45544246 279.486168,12.6505558 279.698132,24.9867922 L279.698132,24.9867922 L279.698132,24.9867922 Z M244.950222,41.3177721 L255.078636,41.3177721 C266.263708,41.3177721 270.694394,33.0452371 270.483221,24.914627 C270.272047,17.1432391 265.77097,9.37104938 255.078636,9.37104938 L244.950222,9.37104938 L244.950222,41.3177721 L244.950222,41.3177721 L244.950222,41.3177721 Z" id="Shape"></path>
                                <path d="M50.7802617,28.3477178 C49.0418381,28.5257252 47.3453327,28.702129 45.6947003,28.8801365 C39.3009711,29.5681111 33.5890077,30.264906 28.6553013,30.9039687 L28.6553013,30.9039687 L28.6149648,30.9103834 C22.7321645,31.6785417 17.9526858,32.1756796 14.5106386,32.7064945 L14.462393,32.5926339 L14.4513202,32.5926339 L14.5114295,32.6816377 C11.4506017,33.1531168 9.43614989,33.5861079 8.6001564,33.7312401 C8.31147369,33.780152 8.16278229,33.8763723 8.16278229,33.8763723 L0.756686229,52.2496268 C1.11892374,52.0820431 1.0074052,51.629808 0.521785559,52.3177827 C0.47670352,52.3819296 0.677595084,52.287313 0.756686229,52.2528341 L2.73554698,51.4261419 C2.0727631,51.7131989 1.40602466,52.0010578 0.755895335,52.2945295 L7.05787877,49.6372473 C6.55248628,49.8377061 6.06133022,50.0461833 5.56384684,50.2466421 L7.05866975,49.6220124 L7.13934268,49.4415994 C7.14171545,49.4391939 7.14487911,49.4391939 7.14804268,49.4391939 L7.05787877,49.6404546 C9.07312148,48.8514486 11.1445189,48.0985253 13.2562528,47.3736661 C21.125823,44.8623179 29.256394,42.7125974 29.8305959,42.5602488 C36.0186881,41.0455818 42.4748992,39.7425994 49.1422839,38.6288502 C50.8103164,38.352217 52.4894216,38.0819985 54.1835542,37.8294204 C147.804549,23.7267408 278.206885,44.9296721 278.206885,44.9296721 C201.224299,18.6575379 105.110351,22.8511367 50.7802617,28.3477178 L50.7802617,28.3477178 L50.7802617,28.3477178 Z" id="Shape" stroke="#FFFFFF"></path>
                            </g>
                            <g id="Group-2">
                                <path d="M62.456397,51.258633 L44.8558383,51.258633 L21.7531134,0.381126016 L39.357421,0.381126016 L62.456397,51.258633 L62.456397,51.258633 Z" id="Shape" fill="url(#linearGradient-1)"></path>
                                <path d="M18.1772677,51.258633 L0.576708995,51.258633 L21.7531134,0.381126016 L39.357421,0.381126016 L18.1772677,51.258633 L18.1772677,51.258633 Z" id="Shape" fill="url(#linearGradient-2)"></path>
                                <path d="M18.1772677,51.258633 L21.7531134,0.381126016 L39.357421,0.381126016 L18.1772677,51.258633 L18.1772677,51.258633 Z" id="Shape" fill="#FFFFFF" opacity="0.1"></path>
                                <path d="M62.456397,51.258633 L21.7531134,0.381126016 L39.357421,0.381126016 L62.456397,51.258633 L62.456397,51.258633 Z" id="Shape" fill="#FFFFFF" opacity="0.1"></path>
                                <path d="M0.576708995,51.258633 L39.357421,0.381126016 L21.7531134,0.381126016 L0.576708995,51.258633 L0.576708995,51.258633 Z" id="Shape" fill="#FFFFFF" opacity="0.1"></path>
                            </g>
                        </g>
                    </g>
                </g>
            </g>
        </g>
    </g>
</svg>