<?xml version="1.0" encoding="UTF-8" standalone="no"?>
<svg width="221px" height="40px" viewBox="0 0 221 40" version="1.1" xmlns="http://www.w3.org/2000/svg" xmlns:xlink="http://www.w3.org/1999/xlink">
    <!-- Generator: Sketch 3.6.1 (26313) - http://www.bohemiancoding.com/sketch -->
    <title>NewAppendLogoV2Solo</title>
    <desc>Created with Sketch.</desc>
    <defs>
        <linearGradient x1="-192.133734%" y1="50.000369%" x2="208.248496%" y2="50.000369%" id="linearGradient-1">
            <stop stop-color="#FF00A6" offset="0%"></stop>
            <stop stop-color="#00B4EC" offset="54.3%"></stop>
            <stop stop-color="#FFFA00" offset="100%"></stop>
        </linearGradient>
        <linearGradient x1="-147.054957%" y1="50.000369%" x2="273.183656%" y2="50.000369%" id="linearGradient-2">
            <stop stop-color="#FF00A6" offset="0%"></stop>
            <stop stop-color="#00B4EC" offset="54.3%"></stop>
            <stop stop-color="#FFFA00" offset="100%"></stop>
        </linearGradient>
    </defs>
    <g id="Page-1" stroke="none" stroke-width="1" fill="none" fill-rule="evenodd">
        <g id="NewAppendLogoV2Solo">
            <g id="Page-1">
                <g id="Group-4">
                    <g id="Group-3">
                        <g id="append_1">
                            <g id="Group" transform="translate(14.434160, 0.000000)" fill="#29ABE2">
                                <path d="M50.8172396,26.2586845 L40.5575636,26.2586845 L40.5575636,37.0680298 L33.7179738,37.0680298 L33.7179738,0.335136905 C39.4179233,0.335136905 45.1172901,0.282624256 50.8178223,0.282624256 C68.5381806,0.282624256 68.5906175,26.2586845 50.8172396,26.2586845 L50.8172396,26.2586845 L50.8172396,26.2586845 Z M40.5575636,19.9087843 L50.8172396,19.9087843 C59.5737088,19.9087843 59.5224368,6.89567784 50.8172396,6.89567784 L40.5575636,6.89567784 L40.5575636,19.9087843 L40.5575636,19.9087843 L40.5575636,19.9087843 Z" id="Shape"></path>
                                <path d="M85.8402039,26.2586845 L75.5811111,26.2586845 L75.5811111,37.0680298 L68.7426865,37.0680298 L68.7426865,0.335136905 C74.4408881,0.335136905 80.1408374,0.282624256 85.8407867,0.282624256 C103.56231,0.282624256 103.614165,26.2586845 85.8402039,26.2586845 L85.8402039,26.2586845 L85.8402039,26.2586845 Z M75.5811111,19.9087843 L85.8402039,19.9087843 C94.5972561,19.9087843 94.5454013,6.89567784 85.8402039,6.89567784 L75.5811111,6.89567784 L75.5811111,19.9087843 L75.5811111,19.9087843 L75.5811111,19.9087843 Z" id="Shape"></path>
                                <path d="M130.814047,21.4068461 L110.450259,21.4068461 L110.450259,30.2461061 L130.814047,30.2461057 L130.814047,37.0686198 L103.661941,37.0686198 L103.661941,0.335726935 L130.814047,0.335726935 L130.814047,7.05262573 L110.450259,7.05262573 L110.450259,15.5006719 L130.814047,15.5006717" id="Shape"></path>
                                <path d="M161.019759,0.282624256 L167.859348,0.282624256 L167.859348,37.0680298 L163.610168,37.0680298 L163.610168,37.1205424 L144.541585,12.3003505 L144.541585,37.0686198 L137.701996,37.0686198 L137.701996,0.335726935 L143.246963,0.335726935 L161.019759,23.1102857 L161.019759,0.282624256 L161.019759,0.282624256 L161.019759,0.282624256 Z" id="Shape"></path>
                                <path d="M206.04429,18.3865075 C206.199855,27.6741659 200.603615,37.0680298 187.907929,37.0680298 L173.658929,37.0680298 L173.658929,0.335136905 L187.907929,0.335136905 C200.344341,0.335136905 205.888143,9.30889954 206.04429,18.3865075 L206.04429,18.3865075 L206.04429,18.3865075 Z M180.446664,30.4036436 L187.907929,30.4036436 C196.147598,30.4036436 199.411537,24.3163065 199.255973,18.3334048 C199.100408,12.6148363 195.784614,6.89567784 187.907929,6.89567784 L180.446664,6.89567784 L180.446664,30.4036436 L180.446664,30.4036436 L180.446664,30.4036436 Z" id="Shape"></path>
                                <path d="M37.4081261,20.8596414 C36.1274874,20.990628 34.8777284,21.1204345 33.6617625,21.2514212 C28.9517153,21.7576667 24.7439023,22.2704025 21.1094053,22.7406562 L21.1094053,22.7406562 L21.0796907,22.7453765 C16.7460278,23.310625 13.2251452,23.6764435 10.6895038,24.0670431 L10.6539628,23.9832589 L10.6458059,23.9832589 L10.6900864,24.0487522 C8.43527659,24.3956897 6.95129708,24.7143058 6.33544855,24.8211012 C6.12278562,24.857093 6.01324962,24.9278966 6.01324962,24.9278966 L0.557425522,38.4478386 C0.824273824,38.3245223 0.742121827,37.9917455 0.384382028,38.4979911 C0.351171593,38.5451935 0.499161712,38.4755699 0.557425522,38.4501987 L2.01518628,37.841878 C1.52693548,38.0531086 1.0357715,38.2649293 0.556842897,38.4808802 L5.19930403,36.5255216 C4.82699823,36.673029 4.46517993,36.8264368 4.09870051,36.9739442 L5.19988671,36.514311 L5.25931578,36.3815543 C5.26106371,36.3797842 5.26339427,36.3797842 5.26572478,36.3797842 L5.19930403,36.5278817 C6.68386616,35.9472924 8.2097956,35.3932544 9.7654396,34.8598675 C15.5626896,33.0118943 21.5522103,31.4300245 21.9752056,31.3179189 C26.5337669,30.2033526 31.2898424,29.2445543 36.2014824,28.425003 C37.4302664,28.2214427 38.6672073,28.0226026 39.9152183,27.8367433 C108.882684,17.4592999 204.945739,33.0614568 204.945739,33.0614568 C148.235233,13.7291317 77.4312916,16.8149874 37.4081261,20.8596414 L37.4081261,20.8596414 L37.4081261,20.8596414 Z" id="Shape" stroke="#FFFFFF"></path>
                            </g>
                            <g id="Group-2">
                                <path d="M46.0095458,37.7186167 L33.0438009,37.7186167 L16.0247935,0.280451219 L28.9933001,0.280451219 L46.0095458,37.7186167 L46.0095458,37.7186167 Z" id="Shape" fill="url(#linearGradient-1)"></path>
                                <path d="M13.3905872,37.7186167 L0.424842293,37.7186167 L16.0247935,0.280451219 L28.9933001,0.280451219 L13.3905872,37.7186167 L13.3905872,37.7186167 Z" id="Shape" fill="url(#linearGradient-2)"></path>
                                <path d="M13.3905872,37.7186167 L16.0247935,0.280451219 L28.9933001,0.280451219 L13.3905872,37.7186167 L13.3905872,37.7186167 Z" id="Shape" fill="#FFFFFF" opacity="0.1"></path>
                                <path d="M46.0095458,37.7186167 L16.0247935,0.280451219 L28.9933001,0.280451219 L46.0095458,37.7186167 L46.0095458,37.7186167 Z" id="Shape" fill="#FFFFFF" opacity="0.1"></path>
                                <path d="M0.424842293,37.7186167 L28.9933001,0.280451219 L16.0247935,0.280451219 L0.424842293,37.7186167 L0.424842293,37.7186167 Z" id="Shape" fill="#FFFFFF" opacity="0.1"></path>
                            </g>
                        </g>
                    </g>
                </g>
            </g>
        </g>
    </g>
</svg>