<?xml version="1.0" encoding="UTF-8" standalone="no"?>
<svg width="273px" height="113px" viewBox="0 0 273 113" version="1.1" xmlns="http://www.w3.org/2000/svg" xmlns:xlink="http://www.w3.org/1999/xlink">
    <!-- Generator: Sketch 3.6.1 (26313) - http://www.bohemiancoding.com/sketch -->
    <title>Group 3</title>
    <desc>Created with Sketch.</desc>
    <defs>
        <linearGradient x1="-192.133734%" y1="50.000369%" x2="208.248496%" y2="50.000369%" id="linearGradient-1">
            <stop stop-color="#FF00A6" offset="0%"></stop>
            <stop stop-color="#00B4EC" offset="54.3%"></stop>
            <stop stop-color="#FFFA00" offset="100%"></stop>
        </linearGradient>
        <linearGradient x1="-147.054957%" y1="50.000369%" x2="273.183656%" y2="50.000369%" id="linearGradient-2">
            <stop stop-color="#FF00A6" offset="0%"></stop>
            <stop stop-color="#00B4EC" offset="54.3%"></stop>
            <stop stop-color="#FFFA00" offset="100%"></stop>
        </linearGradient>
    </defs>
    <g id="Page-1" stroke="none" stroke-width="1" fill="none" fill-rule="evenodd">
        <g id="Group-3" transform="translate(0.000000, -9.000000)">
            <g id="append_1" transform="translate(0.000000, 74.000000)">
                <g id="Group" transform="translate(7.917025, 0.000000)" fill="#29ABE2">
                    <path d="M72.687645,32.2863191 L60.0139276,32.2863191 L60.0139276,45.5769304 L51.5650226,45.5769304 L51.5650226,0.412066988 C58.6061366,0.412066988 65.6465309,0.347500154 72.6883647,0.347500154 C94.5782188,0.347500154 94.6429945,32.2863191 72.687645,32.2863191 L72.687645,32.2863191 Z M60.0139276,24.4788104 L72.687645,24.4788104 C83.5044602,24.4788104 83.441124,8.47856846 72.687645,8.47856846 L60.0139276,8.47856846 L60.0139276,24.4788104 L60.0139276,24.4788104 Z" id="Shape"></path>
                    <path d="M115.951307,32.2863191 L103.278309,32.2863191 L103.278309,45.5769304 L94.8308439,45.5769304 L94.8308439,0.412066988 C101.869799,0.412066988 108.910913,0.347500154 115.952027,0.347500154 C137.84332,0.347500154 137.907376,32.2863191 115.951307,32.2863191 L115.951307,32.2863191 Z M103.278309,24.4788104 L115.951307,24.4788104 C126.768842,24.4788104 126.704786,8.47856846 115.951307,8.47856846 L103.278309,8.47856846 L103.278309,24.4788104 L103.278309,24.4788104 Z" id="Shape"></path>
                    <path d="M171.507231,26.3207497 L146.351963,26.3207497 L146.351963,37.1890462 L171.50723,37.1890457 L171.50723,45.5776558 L137.966394,45.5776558 L137.966394,0.412792458 L171.50723,0.412792458 L171.50723,8.6715435 L146.351963,8.6715435 L146.351963,19.0588237 L171.507231,19.0588234" id="Shape"></path>
                    <path d="M208.820168,0.347500154 L217.269073,0.347500154 L217.269073,45.5769304 L212.020086,45.5769304 L212.020086,45.6414972 L188.464778,15.1238741 L188.464778,45.5776558 L180.015873,45.5776558 L180.015873,0.412792458 L186.865539,0.412792458 L208.820168,28.4152109 L208.820168,0.347500154 L208.820168,0.347500154 Z" id="Shape"></path>
                    <path d="M264.438708,22.6070977 C264.630875,34.0267217 257.717873,45.5769304 242.034967,45.5769304 L224.433261,45.5769304 L224.433261,0.412066988 L242.034967,0.412066988 C257.397594,0.412066988 264.24582,11.445741 264.438708,22.6070977 L264.438708,22.6070977 Z M232.81811,37.3827462 L242.034967,37.3827462 C252.213382,37.3827462 256.245307,29.8980717 256.053139,22.5418054 C255.860971,15.5105497 251.76499,8.47856846 242.034967,8.47856846 L232.81811,8.47856846 L232.81811,37.3827462 L232.81811,37.3827462 Z" id="Shape"></path>
                    <path d="M56.123446,25.6479351 C54.5414805,25.8089895 52.9976606,25.9685929 51.4955851,26.1296472 C45.6772915,26.7521005 40.4794048,27.382534 35.989732,27.9607336 L35.989732,27.9607336 L35.9530257,27.9665374 C30.5996775,28.6615377 26.2503519,29.1113291 23.1180889,29.5915903 L23.0741854,29.4885736 L23.0641092,29.4885736 L23.1188087,29.5691007 C20.3334554,29.9956771 18.5003042,30.3874309 17.7395501,30.518741 C17.4768488,30.5629947 17.3415397,30.6500511 17.3415397,30.6500511 L10.6019923,47.2734718 C10.9316284,47.1218486 10.8301466,46.7126835 10.3882326,47.3351368 C10.3472081,47.3931744 10.5300194,47.3075689 10.6019923,47.2763737 L12.4027556,46.5284141 C11.7996223,46.7881323 11.1928903,47.0485761 10.6012726,47.3140981 L16.3360775,44.9098904 C15.8761704,45.0912579 15.4292183,45.2798801 14.9765084,45.4612476 L16.3367973,44.8961065 L16.4102097,44.7328757 C16.4123689,44.7306993 16.4152478,44.7306993 16.4181267,44.7306993 L16.3360775,44.9127923 C18.1699484,44.1989297 20.05492,43.5177134 21.9765979,42.8618884 C29.1379068,40.5897162 36.5367264,38.644731 37.05925,38.5068917 C42.6904139,37.1364788 48.5655661,35.95759 54.6328861,34.9499121 C56.1507957,34.6996249 57.6787815,34.4551415 59.2204422,34.2266184 C144.415547,21.4670512 263.081674,40.6506557 263.081674,40.6506557 C193.027519,16.8806296 105.563827,20.6748379 56.123446,25.6479351 L56.123446,25.6479351 Z" id="Shape" stroke="#FFFFFF"></path>
                </g>
                <g id="Group-2">
                    <path d="M56.8353213,46.3768584 L40.8188129,46.3768584 L19.7953332,0.3448283 L35.8152531,0.3448283 L56.8353213,46.3768584 Z" id="Shape" fill="url(#linearGradient-1)"></path>
                    <path d="M16.5413136,46.3768584 L0.524805186,46.3768584 L19.7953332,0.3448283 L35.8152531,0.3448283 L16.5413136,46.3768584 Z" id="Shape" fill="url(#linearGradient-2)"></path>
                    <path d="M16.5413136,46.3768584 L19.7953332,0.3448283 L35.8152531,0.3448283 L16.5413136,46.3768584 Z" id="Shape" fill="#FFFFFF" opacity="0.1"></path>
                    <path d="M56.8353213,46.3768584 L19.7953332,0.3448283 L35.8152531,0.3448283 L56.8353213,46.3768584 Z" id="Shape" fill="#FFFFFF" opacity="0.1"></path>
                    <path d="M0.524805186,46.3768584 L35.8152531,0.3448283 L19.7953332,0.3448283 L0.524805186,46.3768584 Z" id="Shape" fill="#FFFFFF" opacity="0.1"></path>
                </g>
            </g>
            <text id="Hey,-we-are-" font-family="Roboto-Regular, Roboto" font-size="43.4285714" font-weight="normal" letter-spacing="-2.00999999" fill="#4A4A4A">
                <tspan x="31.8372093" y="40">Hey, we are</tspan>
                <tspan x="228.290825" y="40"> </tspan>
            </text>
        </g>
    </g>
</svg>